<svg xmlns="http://www.w3.org/2000/svg" version="1.1" xmlns:xlink="http://www.w3.org/1999/xlink" xmlns:svgjs="http://svgjs.dev/svgjs" viewBox="0 0 800 800"><g transform="matrix(1,0,0,1,-149,-158)"><path d="M663.7250429635349 -147.50470459938933C669.9829505464251 -160.15004072821426 688.0170404271832 -160.15004072821426 694.2749480100736 -147.50470459938933L888.2104352677413 244.38823666311987C893.8156253658146 255.7145040367277 885.574001980505 268.988698525598 872.93718696767 268.988698525598H485.0628040059384C472.42598899310315 268.988698525598 464.1843656077936 255.7145040367277 469.7895557058671 244.38823666311987L663.7250429635349 -147.50470459938933Z " stroke-width="9.5" stroke="#1a56db" fill="none" opacity="1" transform="matrix(0.2524684704736325,0.9702957262759965,-1.0935610888739615,-0.24192189559966779,536.2281001623862,124.17519934988445)"></path><path d="M655.1442921515757 -134.91616179096923C661.345663543329 -147.44725539848815 679.2168269604133 -147.44725539848815 685.4181983521667 -134.91616179096923L877.6016025644083 253.43627748442304C883.1561533562046 264.6602192789744 874.9889877651046 277.8144899136057 862.4663382907446 277.8144899136057H478.0961522129979C465.5735027386376 277.8144899136057 457.4063371475377 264.6602192789744 462.96088793933416 253.43627748442304L655.1442921515757 -134.91616179096923Z " stroke-width="9.703125" stroke="#2059dc" fill="none" opacity="1" transform="matrix(0.2959700234592726,0.9824503977255098,-1.074054757121734,-0.18652403600873443,531.313258609466,97.34866167689802)"></path><path d="M646.5635413396167 -122.32761898254915C652.7083765402331 -134.74447006876204 670.4166134936435 -134.74447006876204 676.5614486942599 -122.32761898254915L866.9927698610752 262.4843183057262C872.4966813465946 273.605934521221 864.4039735497045 286.6402813016134 851.9954896138192 286.6402813016134H471.1295004200573C458.721016484172 286.6402813016134 450.62830868728184 273.605934521221 456.1322201728013 262.4843183057262L646.5635413396167 -122.32761898254915Z " stroke-width="9.90625" stroke="#255bdd" fill="none" opacity="1" transform="matrix(0.33839230444821355,0.9914448613738105,-1.0531791526251144,-0.13052619222005138,525.2655179238915,71.49565012047731)"></path><path d="M637.9827905276575 -109.73907617412908C644.071089537137 -122.04168473903593 661.6164000268735 -122.04168473903593 667.7046990363531 -109.73907617412908L856.3839371577423 271.5323591270294C861.8372093369846 282.5516497634676 853.818959334304 295.4660726896211 841.5246409368938 295.4660726896211H464.1628486271168C451.86853022970644 295.4660726896211 443.85028022702596 282.5516497634676 449.30355240626835 271.5323591270294L637.9827905276575 -109.73907617412908Z " stroke-width="10.109375" stroke="#295edf" fill="none" opacity="1" transform="matrix(0.3797078861739396,0.9972501850994857,-1.0309745673870896,-0.07410849019539922,518.0627265659314,46.699324999957184)"></path><path d="M629.4020397156984 -97.1505638832871C635.4338025340411 -109.33892992688794 652.8161865601036 -109.33892992688794 658.8479493784463 -97.1505638832871L845.7751044544092 280.58036943075456C851.1777373273746 291.4973344881362 843.2339451189036 304.2918335600508 831.0537922599685 304.2918335600508H457.19619683417625C445.01604397524085 304.2918335600508 437.0722517667701 291.4973344881362 442.4748846397355 280.58036943075456L629.4020397156984 -97.1505638832871Z " stroke-width="10.3125" stroke="#2d61e0" fill="none" opacity="1" transform="matrix(0.41988994673617164,0.9998476951563913,-1.0074815343268935,-0.017452406437283477,509.69340897450127,23.03944763485913)"></path><path d="M620.8213041625283 -84.56202107486703C626.7965307897341 -96.63614459716183 644.0159883521228 -96.63614459716183 649.9912149793286 -84.56202107486703L835.1662870098653 289.62841025205773C840.5182805765537 300.44304973038265 832.6489461622924 313.1176249480585 820.5829588418321 313.1176249480585H450.2295603000248C438.1635729795644 313.1176249480585 430.29423856530326 300.44304973038265 435.6462321319916 289.62841025205773L620.8213041625283 -84.56202107486703Z " stroke-width="10.515625" stroke="#3163e1" fill="none" opacity="1" transform="matrix(0.4589122999557733,0.9992290362407229,-0.9827408452305999,0.039259815759068666,500.1564549948335,0.5921237799350365)"></path><path d="M612.2405380917802 -71.97347826644696C618.1592285278491 -83.93335926743572 635.2157596265638 -83.93335926743572 641.1344500626327 -71.97347826644696L824.5574390477432 298.676451073361C829.8587933081545 309.38876497262936 822.0639166881031 321.9434163360663 810.1120949061176 321.9434163360663H443.2628932482952C431.3110714663097 321.9434163360663 423.5161948462583 309.38876497262936 428.8175491066697 298.676451073361L612.2405380917802 -71.97347826644696Z " stroke-width="10.71875" stroke="#3465e2" fill="none" opacity="1" transform="matrix(0.49674942447469617,0.9953961983671787,-0.9567935653757843,0.09584575252022406,489.46077259664474,-20.570441181086267)"></path><path d="M603.6597872798211 -59.38493545802686C609.5219415247531 -71.23057393770961 626.4155461597938 -71.23057393770961 632.2777004047259 -59.38493545802686L813.9486063444102 307.7244918946642C819.1993212985444 318.33448021487607 811.4789024727027 330.769207724074 799.6412462291923 330.769207724074H436.2962414553546C424.45858521184414 330.769207724074 416.7381663860025 318.33448021487607 421.98888134013674 307.7244918946642L603.6597872798211 -59.38493545802686Z " stroke-width="10.921875" stroke="#3768e3" fill="none" opacity="1" transform="matrix(0.5333764916413525,0.9883615104677607,-0.9296810450890093,0.1521233861899168,477.6249069043804,-40.38017449558674)"></path><path d="M595.0790364678619 -46.79642316718491C600.884654521657 -58.52781912556162 617.615332693024 -58.52781912556162 623.420950746819 -46.79642316718491L803.3397736410772 316.77250219838936C808.5398492889344 327.28016493954453 800.8938882573024 339.5949685945036 789.1703975522669 339.5949685945036H429.3295896624141C417.60609895737855 339.5949685945036 409.9601379257466 327.28016493954453 415.16021357360387 316.77250219838936L595.0790364678619 -46.79642316718491Z " stroke-width="11.125" stroke="#3a6ae5" fill="none" opacity="1" transform="matrix(0.568769392216707,0.9781476007338056,-0.9014449284722977,0.20791169081775945,464.6766169810597,-58.77335500888512)"></path><path d="M586.498300914692 -34.20788035876484C592.2473827773501 -45.82503379583551 608.8151344850431 -45.82503379583551 614.5642163477013 -34.20788035876484L792.7309561965333 325.8205430196924C797.8803925381135 336.2258801817911 790.3088893006911 348.4207599825113 778.6995641341306 348.4207599825113H422.36295312826263C410.7536279617021 348.4207599825113 403.1821247242798 336.2258801817911 408.33156106586 325.8205430196924L586.498300914692 -34.20788035876484Z " stroke-width="11.328125" stroke="#3d6ce6" fill="none" opacity="1" transform="matrix(0.6029047619318763,0.9647873238288129,-0.8721271595146488,0.26303121445797495,450.65241677423796,-75.69081813345417)"></path><path d="M577.9175501027328 -21.61933755034474C583.6100957742542 -33.12224846610937 600.0149210182732 -33.12224846610937 605.7074666897945 -21.61933755034474L782.1221234932002 334.8685838409958C787.2209205285035 345.17159542403783 779.7238750852907 357.246551370519 768.2287154572052 357.246551370519H415.3963013353221C403.9011417072365 357.246551370519 396.4040962640239 345.17159542403783 401.5028932993271 334.8685838409958L577.9175501027328 -21.61933755034474Z " stroke-width="11.53125" stroke="#406ee7" fill="none" opacity="1" transform="matrix(0.6357600059240511,0.9483236552061993,-0.8417699857867589,0.3173046564050921,435.59709090977697,-91.07814616121732)"></path><path d="M569.3367840319846 -9.030825259502791C574.9727935123691 -20.419493653961382 591.2146922927143 -20.419493653961382 596.8507017730986 -9.030825259502791L771.5132755310782 343.9165941447209C776.5614332601043 354.1172801487063 769.1388456111014 366.0723122409486 757.7578515214908 366.0723122409486H408.42963428359246C397.04864019398184 366.0723122409486 389.62605254497896 354.1172801487063 394.67421027400513 343.9165941447209L569.3367840319846 -9.030825259502791Z " stroke-width="11.734375" stroke="#4271e8" fill="none" opacity="1" transform="matrix(0.6673133220740577,0.9288095528719242,-0.8104159599011529,0.3705574375098362,419.5631800047166,-104.88584330675337)"></path><path d="M560.7560332200255 3.55771754891731C566.335506509273 -7.71670832423527 582.4144788259443 -7.71670832423527 587.9939521151919 3.55771754891731L760.9044428277451 352.96463496602405C765.9019612504943 363.0629953909529 758.5538313957011 374.8981036289563 747.2870028445654 374.8981036289563H401.46298249065194C390.19615393951625 374.8981036289563 382.8480240847231 363.0629953909529 387.84554250747226 352.96463496602405L560.7560332200255 3.55771754891731Z " stroke-width="11.9375" stroke="#4573e9" fill="none" opacity="1" transform="matrix(0.6975437232657767,0.9063077870366499,-0.778107938905709,0.42261826174069944,402.610418438541,-117.06949491835337)"></path><path d="M552.1752824080664 16.146260357337383C557.6982195061771 4.986077005490841 573.6142653591744 4.986077005490841 579.1372024572851 16.146260357337383L750.2956101244122 362.0126757873272C755.2424892408842 372.0087106331996 747.9688171803007 383.7238950169641 736.8161541676401 383.7238950169641H394.4963306977114C383.3436676850507 383.7238950169641 376.0699956244672 372.0087106331996 381.01687474093933 362.0126757873272L552.1752824080664 16.146260357337383Z " stroke-width="12.140625" stroke="#4775ea" fill="none" opacity="1" transform="matrix(0.7264310585849271,0.8808907382053855,-0.7448890817658471,0.4733196671848434,384.80517626826065,-127.58991034480539)"></path><path d="M543.5945468548964 28.734803165757455C549.0609477618701 17.688862335216953 564.8140671511935 17.688862335216953 570.2804680581673 28.734803165757455L739.6867926798682 371.0607166086304C744.5830324900633 380.9544258754462 737.3838182236893 392.5496864049718 726.3453207495038 392.5496864049718H387.52969416355995C376.4911966893742 392.5496864049718 369.2919824230004 380.9544258754462 374.1882222331955 371.0607166086304L543.5945468548964 28.734803165757455Z " stroke-width="12.34375" stroke="#4977eb" fill="none" opacity="1" transform="matrix(0.7539560334723149,0.8526401643540922,-0.7108028450793173,0.5224985647159489,366.21986429070716,-136.41324899835092)"></path><path d="M535.0137807841483 41.32331545659943C540.423645499985 30.39161714736494 556.0138384256346 30.39161714736494 561.4237031414714 41.32331545659943L729.077944717746 380.1087269123557C733.9235452216642 389.90011060011466 726.7987887495 401.3754472754015 715.8744568137893 401.3754472754015H380.56302711183037C369.63869517611954 401.3754472754015 362.51393870395543 389.90011060011466 367.3595392078735 380.1087269123557L535.0137807841483 41.32331545659943Z " stroke-width="12.546875" stroke="#4c79ed" fill="none" opacity="1" transform="matrix(0.7801002288445461,0.8216469379421637,-0.6758929771573794,0.569996762596303,346.93231072211177,-143.511129208312)"></path><path d="M526.4330299721892 53.911858265019504C531.7863584968891 43.09440247709105 547.2136249588647 43.09440247709105 552.5669534835647 53.911858265019504L718.4691120144131 389.15676773365885C723.2640732120542 398.84582584236136 716.2137745340997 410.2012386634092 705.4036081368639 410.2012386634092H373.5963753188898C362.78620892165395 410.2012386634092 355.7359102436996 398.84582584236136 360.53087144134065 389.15676773365885L526.4330299721892 53.911858265019504Z " stroke-width="12.75" stroke="#4e7bee" fill="none" opacity="1" transform="matrix(0.8048461191933471,0.788010753606722,-0.6402035105971045,0.6156614753256583,327.0251281448251,-148.86071951524457)"></path><path d="M517.85227916023 66.50040107343958C523.1490714937931 55.79718780681716 538.4134114920947 55.79718780681716 543.7102038256578 66.50040107343958L707.8602793110801 398.204808554962C712.6046012024442 407.79154108460807 705.6287603186993 419.0270300514169 694.9327594599386 419.0270300514169H366.62972352594926C355.9337226671884 419.0270300514169 348.9578817834437 407.79154108460807 353.7022036748077 398.204808554962L517.85227916023 66.50040107343958Z " stroke-width="12.953125" stroke="#507def" fill="none" opacity="1" transform="matrix(0.8281770896730181,0.7518398074789773,-0.6037787534614334,0.659345815100069,306.5850761303202,-152.4448121119549)"></path><path d="M509.2715436070599 79.08894388185968C514.5117997494862 68.49997313654328 529.613213284114 68.49997313654328 534.8534694265401 79.08894388185968L697.2514618665361 407.2528493762652C701.9451444516232 416.73725632685455 695.0437613620882 427.8528214394246 684.4619260418023 427.8528214394246H359.6630869917978C349.0812516715119 427.8528214394246 342.1798685819769 416.73725632685455 346.8735511670639 407.2528493762652L509.2715436070599 79.08894388185968Z " stroke-width="13.15625" stroke="#527ff0" fill="none" opacity="1" transform="matrix(0.8500774521841234,0.7132504491541816,-0.5666632791763798,0.7009092642998509,285.7024039369926,-154.251878195146)"></path><path d="M500.69079279510083 91.67745617270162C505.8745127463901 81.20272794869126 520.812999817344 81.20272794869126 525.9967197686333 91.67745617270162L686.6426291632031 416.30085967999037C691.285672442013 425.68294105152313 684.4587471466878 436.67858230985416 673.9910773648769 436.67858230985416H352.6964351988573C342.2287654170463 436.67858230985416 335.401840121721 425.68294105152313 340.044883400531 416.30085967999037L500.69079279510083 91.67745617270162Z " stroke-width="13.359375" stroke="#5481f1" fill="none" opacity="1" transform="matrix(0.8705324604602871,0.672366807434668,-0.5289019152483011,0.7402181274868321,264.4701754600797,-154.27610504964537)"></path><path d="M492.11004198314174 104.2659989811217C497.2372257432941 93.90551327841737 512.0127863505741 93.90551327841737 517.1399701107265 104.2659989811217L676.0337964598701 425.34890050129366C680.626200432403 434.6286562937697 673.8737329312873 445.50437369786187 663.5202286879515 445.50437369786187H345.7297834059167C335.3762791625807 445.50437369786187 328.62381166146514 434.6286562937697 333.2162156339981 425.34890050129366L492.11004198314174 104.2659989811217Z " stroke-width="13.5625" stroke="#5682f2" fill="none" opacity="1" transform="matrix(0.8895283241638787,0.6293203910498374,-0.49053973089838615,0.7771459614569709,242.98359853844153,-152.51741474592586)"></path><path d="M483.5292759123936 116.8545417895418C488.59992348140906 106.60829860814349 503.2125576250151 106.60829860814349 508.2832051940306 116.8545417895418L665.4249484977481 434.3969413225967C669.966713164004 443.5743715360163 663.288703457098 454.33016508586957 653.0493647522371 454.33016508586957H338.7631163541871C328.5237776493261 454.33016508586957 321.8457679424202 443.5743715360163 326.3875326086761 434.3969413225967L483.5292759123936 116.8545417895418Z " stroke-width="13.765625" stroke="#5884f3" fill="none" opacity="1" transform="matrix(0.907052221995452,0.5842496656374344,-0.45162202370635385,0.8115739819650123,221.33936107249468,-148.98146439077982)"></path><path d="M474.9485251004345 129.44308459796187C479.9626364783131 119.3110839378696 494.4123441582452 119.3110839378696 499.42645553612374 129.44308459796187L654.816115794415 443.4449821439C659.307241154394 452.520086778263 652.7036892416977 463.1559564738774 642.5785160753117 463.1559564738774H331.7964645612466C321.67129139486053 463.1559564738774 315.0677394821643 452.520086778263 319.55886484214324 443.4449821439L474.9485251004345 129.44308459796187Z " stroke-width="13.96875" stroke="#5a86f4" fill="none" opacity="1" transform="matrix(0.9230923138209791,0.5372996083468239,-0.41219430535077484,0.8433914458128857,199.63495847858866,-143.67962793033462)"></path><path d="M466.3677895472644 142.03159688880382C471.32536473400614 132.01383875001758 485.61214595026433 132.01383875001758 490.56972113700607 142.03159688880382L644.207298349871 452.49299244762506C648.6477844035729 461.4657715029315 642.1186902850864 471.98171734430696 632.1076826571755 471.98171734430696H324.8298280270951C314.818820399184 471.98171734430696 308.2897262806975 461.4657715029315 312.73021233439937 452.49299244762506L466.3677895472644 142.03159688880382Z " stroke-width="14.171875" stroke="#5c88f5" fill="none" opacity="1" transform="matrix(0.9376377518202395,0.4886212414969549,-0.37230228652935154,0.8724960070727972,177.96801760677437,-136.6289595639496)"></path><path d="M457.7870387353053 154.62013969722392C462.6880777309101 144.7166240797437 476.81193248349445 144.7166240797437 481.7129714790992 154.62013969722392L633.598465646538 461.54103326892835C637.9883123939629 470.4114867451781 631.5336760696861 480.8075087323148 621.63683398025 480.8075087323148H317.8631762341546C307.9663341447184 480.8075087323148 301.5116978204416 470.4114867451781 305.9015445678665 461.54103326892835L457.7870387353053 154.62013969722392Z " stroke-width="14.375" stroke="#5e8af6" fill="none" opacity="1" transform="matrix(0.9506786906591222,0.4383711467890774,-0.33199186113888557,0.898794046299167,156.43563755450157,-127.85213888667249)"></path><path d="M449.20627266455716 167.208682505644C454.05077546902504 157.41940940946984 468.0117037579355 157.41940940946984 472.8562065624034 167.208682505644L622.9896176844161 470.5890740902315C627.3288251255638 479.3572019874248 620.9486465954967 489.6333001203225 611.1659700445355 489.6333001203225H310.89650918242495C301.1138326314638 489.6333001203225 294.7336541013967 479.3572019874248 299.0728615425445 470.5890740902315L449.20627266455716 167.208682505644Z " stroke-width="14.578125" stroke="#5f8bf8" fill="none" opacity="1" transform="matrix(0.9622062966880995,0.3867109616368206,-0.2913090897914732,0.9222009716704518,135.1337471962387,-117.37739793671983)"></path><path d="M440.625521852598 179.79719479648594C445.41348846592905 170.12216422161782 459.21149029116555 170.12216422161782 463.9994569044966 179.79719479648594L612.380784981083 479.6370843939567C616.6693531159538 488.30288671209325 610.3636323800963 498.45906099075205 600.6951213676102 498.45906099075205H303.9298573894844C294.26134637699823 498.45906099075205 287.95562564114084 488.30288671209325 292.2441937760116 479.6370843939567L440.625521852598 179.79719479648594Z " stroke-width="14.78125" stroke="#618df9" fill="none" opacity="1" transform="matrix(0.9722127561686947,0.3338068592337709,-0.2503001827406796,0.9426414910921784,114.15646831575799,-105.23843038263942)"></path><path d="M432.0447710406389 192.38573760490604C436.7762014628331 182.82494955134393 450.4112768243956 182.82494955134393 455.1427072465898 192.38573760490604L601.77195227775 488.68512521525986C606.0098811063438 497.24860195433985 599.7786181646959 507.28485237875975 590.2242726906848 507.28485237875975H296.9632055965439C287.40886012253264 507.28485237875975 281.17759718088496 497.24860195433985 285.4155260094787 488.68512521525986L432.0447710406389 192.38573760490604Z " stroke-width="14.984375" stroke="#638ffa" fill="none" opacity="1" transform="matrix(0.9806912825294123,0.2798290140309921,-0.20901148228900385,0.9600498543859287,93.59548264701334,-91.47428314227244)"></path><path d="M423.4640354874689 204.9742804133261C428.13892971852613 195.52773488107005 441.61107861641483 195.52773488107005 446.285972847472 204.9742804133261L591.1631348332061 497.73316603656315C595.3504243555228 506.19431719658655 589.1936192080847 516.1106437667675 579.7534392725485 516.1106437667675H289.99656906239244C280.5563891268561 516.1106437667675 274.39958397941814 506.19431719658655 278.5868735017349 497.73316603656315L423.4640354874689 204.9742804133261Z " stroke-width="15.1875" stroke="#6590fb" fill="none" opacity="1" transform="matrix(0.9876361226522945,0.224951054343865,-0.16748944474584043,0.9743700647852352,73.53944444178899,-76.12923078213828)"></path><path d="M414.8832846755098 217.56282322174619C419.50164271543014 208.23052021079616 432.8108651496449 208.23052021079616 437.42922318956516 217.56282322174619L580.554302129873 506.7812068578662C584.6909523459128 515.1400324388331 578.6086049926844 524.9364351547752 569.2825905956231 524.9364351547752H283.02991726945186C273.7039028723906 524.9364351547752 267.62155551916226 515.1400324388331 271.75820573520195 506.7812068578662L414.8832846755098 217.56282322174619Z " stroke-width="15.390625" stroke="#6692fc" fill="none" opacity="1" transform="matrix(0.9930425621910123,0.16934950384902459,-0.125780622003355,0.9855560590580777,54.07339713220165,-59.25263310125655)"></path><path d="M406.30251860476164 230.15133551258816C410.8643404535451 220.93327502294414 424.01063642408593 220.93327502294414 428.5724582728693 230.15133551258816L569.945454167751 515.8292171615914C574.0314650775136 524.0857171635016 568.0235755184949 533.7621960252047 558.8117266599087 533.7621960252047H276.06325021772227C266.85140135913593 533.7621960252047 260.8435118001173 524.0857171635016 264.92952270988 515.8292171615914L406.30251860476164 230.15133551258816Z " stroke-width="15.59375" stroke="#6894fd" fill="none" opacity="1" transform="matrix(0.996906929921196,0.11320321376790672,-0.0839316427961794,0.9935718556765875,35.278218259570565,-40.89877635751117)"></path><path d="M397.7217677928025 242.73987832100823C402.22705345044903 233.63606035267026 415.210422957316 233.63606035267026 419.7157086149625 242.73987832100823L559.3366214644179 524.8772579828947C563.3719930679035 533.0314324057483 557.4385613030947 542.5879874132125 548.3408779829833 542.5879874132125H269.09659842478175C259.99891510467035 542.5879874132125 254.06548333986143 533.0314324057483 258.1008549433471 524.8772579828947L397.7217677928025 242.73987832100823Z " stroke-width="15.796875" stroke="#6995fe" fill="none" opacity="1" transform="matrix(0.9992266011235309,0.05669278756337751,-0.041989193709607374,0.9983916705573488,17.230087622043243,-21.1266986472765)"></path><path d="M389.14103223963247 255.32842112942834C393.58978170614216 246.33884568239637 406.41022474933516 246.33884568239637 410.8589742158448 255.32842112942834L548.727804019874 533.9252988041978C552.7125363170826 541.977147647995 546.8535623464834 551.4137788012202 537.8700445648469 551.4137788012202H262.1299618906303C253.14644410899382 551.4137788012202 247.2874701383946 541.977147647995 251.27220243560328 533.9252988041978L389.14103223963247 255.32842112942834Z " stroke-width="16" stroke="#6b97ff" fill="none" opacity="1" transform="matrix(1,0,0,1,0,0)"></path></g></svg>